<?xml version="1.0" encoding="utf-8"?>
<!-- Generator: Adobe Illustrator 15.1.0, SVG Export Plug-In . SVG Version: 6.00 Build 0)  -->
<!DOCTYPE svg PUBLIC "-//W3C//DTD SVG 1.1//EN" "http://www.w3.org/Graphics/SVG/1.1/DTD/svg11.dtd">
<svg version="1.1" xmlns="http://www.w3.org/2000/svg" xmlns:xlink="http://www.w3.org/1999/xlink" x="0px" y="0px"
	 width="120px" height="120px" viewBox="0 0 245.987 245.987" enable-background="new 0 0 245.987 245.987"
	 xml:space="preserve">
 <defs>
    		<style type="text/css"><![CDATA[

.gearSpin {
  -webkit-animation: rotation 2s infinite linear;
  -moz-animation: rotation 2s infinite linear;
  -o-animation: rotation 2s infinite linear;
  animation: rotation 2s infinite linear;
  transform-origin: 50% 50%;
  -webkit-transform-origin: 50% 50%;
  -moz-transform-origin: 50% 50%;
}

@-webkit-keyframes rotation {
  from {-webkit-transform: rotate(0deg);}
  to   {-webkit-transform: rotate(359deg);}
}
@-moz-keyframes rotation {
  from {-moz-transform: rotate(0deg);}
  to   {-moz-transform: rotate(359deg);}
}
@-o-keyframes rotation {
  from {-o-transform: rotate(0deg);}
  to   {-o-transform: rotate(359deg);}
}
@keyframes rotation {
  from {transform: rotate(0deg);}
  to   {transform: rotate(359deg);}
}
    		]]></style>
    	</defs>

<g id="Layer_2">
	<circle opacity="0.82" fill="#020303" fill-opacity="0.5" cx="122.994" cy="122.994" r="122.994"/>
</g>
<g id="Layer_1">
	<g>
		<linearGradient id="SVGID_1_" gradientUnits="userSpaceOnUse" x1="11" y1="123.5791" x2="233.0947" y2="123.5791">
			<stop  offset="0" style="stop-color:#FFFFFF;stop-opacity:0"/>
			<stop  offset="1" style="stop-color:#00AEEF"/>
		</linearGradient>
		<path class="gearSpin" fill="url(#SVGID_1_)" d="M122.047,234.627C60.815,234.627,11,184.812,11,123.579C11,62.347,60.815,12.532,122.047,12.532
			c61.232,0,111.048,49.815,111.048,111.047C233.095,184.812,183.279,234.627,122.047,234.627z M122.047,21.532
			C65.778,21.532,20,67.31,20,123.579c0,56.27,45.778,102.048,102.047,102.048c56.27,0,102.048-45.778,102.048-102.048
			C224.095,67.31,178.316,21.532,122.047,21.532z"/>
	</g>
	<path fill="#19A5CF" d="M209.731,123.579c0,24.289-8.585,44.977-25.747,62.059c-17.165,17.086-37.811,25.625-61.937,25.625
		c-24.13,0-44.775-8.539-61.937-25.625c-17.166-17.082-25.747-37.77-25.747-62.059c0-24.125,8.581-44.771,25.747-61.937
		c17.162-17.162,37.807-25.746,61.937-25.746c24.126,0,44.771,8.584,61.937,25.746C201.146,78.808,209.731,99.454,209.731,123.579z
		 M205.602,123.579c0-22.991-8.178-42.665-24.531-59.022c-16.357-16.353-36.031-24.532-59.022-24.532
		c-22.995,0-42.669,8.137-59.022,24.411c-16.357,16.273-24.532,35.989-24.532,59.144c0,22.995,8.175,42.669,24.532,59.022
		c16.354,16.357,36.027,24.532,59.022,24.532c23.154,0,42.87-8.175,59.144-24.532C197.465,166.248,205.602,146.574,205.602,123.579z
		 M200.259,123.579c0,8.907-1.298,17.245-3.887,25.018l-0.729-0.242c1.943-6.801,2.915-13.033,2.915-18.703
		c0-5.18-0.934-9.351-2.794-12.509c-1.863-3.158-4.25-4.736-7.165-4.736c-3.886,0-5.829,2.027-5.829,6.072
		c0,1.458,1.336,4.008,4.008,7.651c2.672,3.644,4.008,8.221,4.008,13.724c0,4.699-1.056,10.528-3.158,17.488
		c-4.372,14.414-12.956,25.587-25.746,33.52c-11.659,7.286-24.938,10.93-39.834,10.93c-10.851,0-19.109-1.294-24.775-3.887
		l0.243-0.729c4.858,1.943,11.09,2.915,18.703,2.915c5.181,0,9.31-0.93,12.388-2.793c3.074-1.86,4.615-4.167,4.615-6.923
		c0-4.046-2.027-6.072-6.072-6.072c-1.621,0-4.213,1.378-7.772,4.129c-3.563,2.756-8.016,4.13-13.359,4.13
		c-5.021,0-10.93-1.052-17.731-3.158c-14.414-4.372-25.587-12.953-33.519-25.746c-7.287-11.659-10.93-25.018-10.93-40.077
		c0-6.152,1.294-14.41,3.886-24.775l0.729,0.243c-1.943,5.829-2.915,12.065-2.915,18.703c0,11.336,3.317,17.002,9.958,17.002
		c3.886,0,5.83-1.943,5.83-5.83c0-1.617-1.336-4.25-4.008-7.894c-2.672-3.643-4.008-8.137-4.008-13.48
		c0-5.017,1.051-10.93,3.158-17.731c4.372-14.41,12.953-25.583,25.747-33.519c11.659-7.287,24.934-10.93,39.834-10.93
		c8.903,0,17.161,1.377,24.774,4.129l-0.242,0.729c-4.213-2.103-10.444-3.158-18.703-3.158c-5.184,0-9.313,0.934-12.387,2.793
		c-3.078,1.864-4.615,4.251-4.615,7.166c0,3.886,2.023,5.829,6.072,5.829c1.617,0,4.209-1.336,7.773-4.007
		c3.56-2.672,8.015-4.008,13.358-4.008c4.858,0,10.768,1.055,17.731,3.158c14.41,4.372,25.583,13.036,33.519,25.989
		C196.615,95.487,200.259,108.683,200.259,123.579z M170.869,146.896c0-5.343-1.458-9.875-4.372-13.602
		c-2.915-3.723-6.885-5.586-11.902-5.586c-4.049,0-7.491,1.298-10.322,3.886c-2.835,2.592-4.251,5.75-4.251,9.473
		c0,3.078,0.809,5.67,2.429,7.772c1.617,2.106,3.644,3.157,6.072,3.157c2.266,0,3.4-1.051,3.4-3.157c0-0.972-0.569-2.186-1.7-3.644
		c-1.135-1.457-1.7-3.074-1.7-4.857c0.16-3.56,2.023-5.344,5.587-5.344c5.666,0,8.418,3.97,8.258,11.901
		c0,4.372-1.377,7.936-4.129,10.688c-2.755,2.755-6.155,4.129-10.201,4.129c-4.858,0-8.865-1.98-12.023-5.95
		c-3.157-3.967-4.736-8.703-4.736-14.209c0-12.63,5.181-20.319,15.545-23.075c2.266,0.486,3.966,0.649,5.101,0.486
		c5.503,0,8.259-1.374,8.259-4.129c0-2.429-2.35-3.643-7.044-3.643c-3.727,0-5.75,0.326-6.072,0.972
		c-1.62-0.809-2.915-2.346-3.887-4.615c11.333-8.581,17.003-16.273,17.003-23.074c0-5.503-2.835-8.258-8.501-8.258
		c-4.858,0-8.987,2.512-12.388,7.529c-3.4,5.021-5.101,10.528-5.101,16.517c0,2.592,0.159,4.456,0.486,5.586
		c-4.536,3.241-10.93,7.37-19.188,12.388c0-2.429,0.243-4.858,0.729-7.287c4.532-4.857,6.801-8.66,6.801-11.416
		c0-2.103-0.971-3.158-2.915-3.158c-4.698,0-7.856,4.129-9.473,12.387c-3.241,4.05-6.642,6.072-10.201,6.072
		c-2.106,0-3.484-1.214-4.129-3.643c4.858-1.617,9.511-5.181,13.966-10.687c4.452-5.503,6.679-11.01,6.679-16.517
		c0-5.181-2.755-7.772-8.258-7.772c-5.185,0-9.837,3.157-13.966,9.473c-4.129,6.315-6.194,12.793-6.194,19.431
		c-3.563,0-5.344-2.429-5.344-7.287c0-1.294,0.201-2.793,0.607-4.494c0.402-1.7,0.607-2.63,0.607-2.793
		c0-1.457-0.649-2.186-1.943-2.186c-4.049,0-5.993,3.484-5.83,10.444c0.16,8.099,4.209,12.471,12.145,13.116
		c1.294,5.993,4.695,8.987,10.202,8.987c4.045,0,7.287-1.131,9.716-3.4c-0.164,1.135-0.406,2.672-0.729,4.615
		c-7.127,3.727-11.822,6.235-14.087,7.529c-4.535,2.755-8.342,5.507-11.416,8.258c-5.83,5.344-8.744,11.093-8.744,17.246
		c0,3.886,1.214,7.207,3.644,9.958c2.429,2.756,5.909,4.129,10.444,4.129c11.173,0,19.104-7.123,23.803-21.374
		c1.457-4.372,2.508-11.738,3.158-22.103c8.095-4.531,15.545-9.229,22.345-14.087c0.809,1.298,1.617,2.27,2.43,2.915
		c-11.5,5.993-17.246,15.302-17.246,27.933c0,6.964,2.103,12.957,6.315,17.974c4.694,5.829,11.009,8.743,18.945,8.743
		c6.638,0,12.183-2.307,16.639-6.922C168.641,157.705,170.869,152.566,170.869,146.896z M106.988,130.137
		c-1.135,8.258-3.241,15.302-6.315,21.131c-3.727,6.964-8.015,10.444-12.873,10.444c-3.727,0-5.586-2.103-5.586-6.315
		C82.214,146.654,90.472,138.236,106.988,130.137z M109.903,84.717c0,2.915-1.378,6.398-4.129,10.444
		c-2.755,4.049-6.072,7.127-9.958,9.23c0-4.046,1.458-8.623,4.372-13.724s5.586-7.651,8.016-7.651
		C109.334,83.017,109.903,83.586,109.903,84.717z M152.895,85.688c0,3.563-3.727,8.584-11.173,15.059
		c0-4.695,1.093-8.824,3.279-12.387c2.186-3.56,4.25-5.344,6.193-5.344C152.325,83.017,152.895,83.908,152.895,85.688z"/>
</g>
</svg>
